<svg xmlns="http://www.w3.org/2000/svg" xmlns:xlink="http://www.w3.org/1999/xlink" height="511" viewBox="0 0 755 511" width="755"><path d="M329.566 21.207c9.6 5.213 16.993 13.135 22.872 22.23 7.216 12.552 10.975 27.825 11.765 42.282-.39 8.932-3.16 17.138-7.703 24.816-6.734 9.437-16.086 14.46-26.375 19.153l-2.487 1.08c-4.74 2.104-8.362 4.05-11.638 8.232-.838 2.349-.838 2.349-1 5 .668 2.65.668 2.65 1.871 5.3l1.24 2.96 1.327 3.053 1.314 3.11A908 908 0 0 0 324 166l3.406-.219c65.879-3.803 65.879-3.803 93.594 2.219l.805-3.73c1.55-6.984 3.367-13.902 5.16-20.827l.793-3.119.723-2.81c.654-2.739.654-2.739.519-6.514l-1.661-.516C416.482 127.058 406.52 123.874 398 116l-2.375-2.168c-7.634-7.699-12.623-17.314-15.79-27.621-2.351-10.09-2.71-18.986.071-29 3.356-9.851 7.717-17.931 15.434-25.031 11.946-9.789 25.737-14.751 40.8-17.582 11.187-1.66 22.297-.761 32.934 3.168 11.738 4.73 23.092 11.195 31.426 20.922 3.87 5.805 5.667 12.649 7.5 19.312l.603 2.168c3.268 12.098 5.082 24.02 2.702 36.469-1.934 6.994-4.819 12.685-9.305 18.363l-1.555 2.047c-5.682 7.014-12.956 12.674-21.257 16.266-5.188 1.903-10.553 2.856-15.989 3.78-3.619 1.026-5.52 2.29-8.199 4.907-1.54 2.402-1.998 3.97-2.227 6.84.01 1.07.02 2.137.032 3.238l.02 3.516.05 3.656.027 3.703q.036 4.524.098 9.047l2.762.629C477.322 177.69 499.158 184.026 516 199l2.02 1.66c2.819 2.32 4.904 4.229 6.98 7.278l2 2.062c5.499-.28 9.8-1.933 14.625-4.375l2.098-1.059c10.841-5.728 19.55-14.112 27.277-23.566-2.963-2.305-6.035-4.254-9.25-6.187-10.591-6.776-17.629-15.954-23.75-26.813-5.287-10.381-8.54-21.65-8.184-33.371 1.668-23.88 6.718-49.516 20.094-69.774C559.287 32.044 571.507 21.606 586 15c3.672-.906 3.672-.906 7-1 2.12 1.198 2.12 1.198 4 3 .881 2.205.881 2.205 1.414 4.746l.617 2.787.594 2.904q.606 2.844 1.227 5.684l.525 2.545c.54 2.344.54 2.344 1.657 4.383 1.045 2.11 1.335 3.716 1.571 6.049 1.07 9.14 2.608 17.627 5.832 26.277l.874 2.356c1.874 4.79 3.993 9.573 7.689 13.269 2.617.593 2.617.593 6 0 5.985-2.756 10.808-6.43 15.29-11.215 1.812-1.891 3.72-3.582 5.71-5.285 6.84-5.947 12.276-12.102 17.66-19.418 8.404-11.07 8.404-11.07 13.29-14.418C679 37 679 37 681.542 37.187c2.726.902 3.861 1.691 5.77 3.813 9.019 11.063 13.071 25.148 16.183 38.82.456 1.974.962 3.935 1.473 5.895 3.97 16.046 2.323 31.496-1.969 47.285-5.345 18.12-13.414 33.788-27 47l-1.902 1.895c-6.137 5.703-13.338 8.883-21.45 10.75-7.864 1.62-15.47 1.6-23.46 1.355-11.403-.44-11.403-.44-22.448 1.996-3.609 2.082-5.56 5.56-7.74 9.004a821 821 0 0 1-3.625 5.188c-.55.797-1.098 1.595-1.664 2.417-5.619 7.864-12.175 13.94-20.961 18.145-5.405 2.305-10.98 3.777-16.684 5.16-3.094.938-3.094.938-5.476 2.836-1.777 2.173-1.777 2.173-2.043 4.953.597 4.347 2.07 8.06 3.703 12.113 3.442 8.945 5.844 17.81 7.75 27.188l.453 2.13c1.692 7.972 3.078 15.688 2.547 23.87l2.387.262c10.275 1.325 19.922 3.808 28.488 9.863 8.339 7.152 12.229 16.777 15.907 26.862 2.05 5.961 3.318 11.666 3.218 18.013l-2 1a261 261 0 0 1-8.523-8.777l-1.907-2.057q-1.937-2.094-3.867-4.195c-6.18-6.654-12.005-12.128-20.328-15.909l-1.945-.955c-2.84-1.318-5.01-2.128-8.16-1.97-3.818 1.452-6.513 3.893-9.27 6.863-1.464 2.685-1.464 2.685-2 5l1.625.375c11.8 3.105 23.386 8.61 32.341 16.999 7.926 8.14 12.317 19.677 15.354 30.442 1.141 5.343 1.72 10.719 1.68 16.184l-1 3c-1.738-.227-1.738-.227-4-1-2.043-1.898-2.043-1.898-4.187-4.375l-2.391-2.742a494 494 0 0 1-6.86-8.383c-7.2-8.838-14.358-16.265-24.562-21.5l-1.773-.96a268 268 0 0 0-5.852-3.04l-1.846-.993c-2.526-1.226-4.803-2.037-7.63-1.921-2.159.424-3.926.94-5.899 1.914-2.5 2.453-2.5 2.453-4 5l2.414 2.16c9.534 8.587 17.331 16.21 21.551 28.695.843 2.932 1.61 5.872 2.347 8.832l.8 3.01c1.34 5.242 2.213 9.893 1.888 15.303h-2l.07 3.36q.029 2.194.055 4.39l.05 2.21c.029 3.11-.018 5.649-1.183 8.556L561 450c-1.827-.7-1.827-.7-4-2-1.445-2.148-1.445-2.148-2.77-4.805l-1.493-2.94-1.55-3.13a4075 4075 0 0 0-3.222-6.316l-1.555-3.06c-7.908-15.423-17.028-26.495-31.426-36.093-2.092-.832-2.092-.832-4.855-.449-3.308.838-6.106 2.024-9.192 3.48C447.104 418.78 372.438 417.752 315 412c-9.886-1.228-19.68-2.986-29.387-5.219l-2.589-.586q-2.358-.544-4.7-1.152c-4.764-1.126-8.557-1.06-13.303.21-2.937 1.086-4.835 2.518-7.021 4.747-1.925 2.499-1.925 2.499-3.562 5.25l-1.692 2.703c-3.714 6.48-6.594 12.976-8.996 20.047l-.812 2.348q-.975 2.824-1.938 5.652h-2l-2-6-.411 1.757c-.625 2.645-1.263 5.288-1.901 7.93l-.647 2.764c-1.133 4.65-2.204 8.597-5.041 12.549-2.854-2.351-4.023-4.058-5.379-7.547q-.615-2.095-1.184-4.203l-.633-2.28c-3.91-14.433-7.044-29.421-4.148-44.353 2.265-7.477 6.193-14.04 10.344-20.617-3.832.287-5.901.933-9.113 3.117q-1.62 1.356-3.2 2.758l-1.715 1.495c-8.505 7.59-14.69 16.364-20.343 26.173L192 422h-2c-.473-7.326.901-12.374 4-19-3.832 5.747-6.923 11.722-9.969 17.906-2.855 5.786-5.881 11.463-9.031 17.094h-4c-2.522-6.803-2.331-13.499-2.312-20.687l-.05-3.647c-.005-9.863 1.186-18.933 5.862-27.728 6.269-9.652 15.015-16.66 24.5-22.938a198 198 0 0 0 5-4l-.805-1.504c-2.311-4.446-3.98-8.635-5.195-13.496-6.685 4.263-12.887 8.956-19 14l-3.031 2.363c-8.554 7.598-13.408 19.085-17.875 29.415l-1.051 2.363-.906 2.11C155 396 155 396 152.872 397.241L151 398c-3.52-7.041-1.325-19.268-1-27 .567-7.225 2.395-13.51 6-19.812 5.255-7.496 12.176-13.047 20.375-17.063 6.004-2.511 12.254-3.88 18.625-5.125l-.656-2.7c-5.377-24.43-3.534-50.852 3.854-74.66q.9-2.82 1.802-5.64a604 604 0 0 0 2-7l-3.148-.664c-11.666-2.591-19.88-6.424-28.915-14.461-7.222-6.668-12.983-14.387-17.937-22.875-5.24.594-5.24.594-10.43 1.512-14.039 2.869-29.034 3.113-42.714-1.384A318 318 0 0 1 93 199l-3.586-1.234C74.33 192.35 61.605 182.982 51 171c-13.19-15.92-23.512-34.853-27.375-55.312-1.992-15.197-.146-31.81 5.223-46.215 1.449-3.11 3.104-5.754 5.199-8.461C36 60 36 60 39.723 59.992c4.944.824 8.147 3.344 11.965 6.446l2.123 1.646a319 319 0 0 1 9.2 7.443C74.005 84.54 88.457 93.485 102 98c1.728.068 3.458.085 5.188.063l2.73-.028L112 98c7.175-10.144 7.69-24.56 8.836-36.672.537-7.614.155-15.31-.103-22.931a441 441 0 0 1-.151-6.85l-.097-2.08c-.02-1.956-.02-1.956.515-5.467 2.313-2.946 2.313-2.946 5-5 7.902-.941 15.785 1.823 23.025 4.846 14.671 6.574 27.274 15.412 37.319 28.119 5.504 7.625 9.758 15.64 13.754 24.129.833 1.76 1.694 3.505 2.558 5.25 5.539 11.416 8.955 23.24 11.656 35.594l.52 2.328c2.15 10.379.957 19.54-1.832 29.734-3.687 10.995-9.297 21.05-17.742 29.082-3.494 2.968-7.183 5.629-10.938 8.254-2.367 1.602-2.367 1.602-4.32 3.664-.049 2.404-.049 2.404 1 5 8.061 9.89 17.62 16.262 29.3 21.117 2.86 1.09 2.86 1.09 6.7.883 1.768-1.503 1.768-1.503 3.313-3.562l1.855-2.227L224 209c15.085-17.25 37.904-25.795 59-33 9.104-3 9.104-3 14-3l-.621-2.16-.817-2.903-.808-2.847c-1.657-6.79-2.011-13.575-2.317-20.528l-.13-2.794q-.159-3.384-.307-6.768l-1.95-.516c-17.029-4.567-33.295-9.284-46.78-21.152-6.506-6.685-9.123-14.138-11.508-23.035-2.49-10.778-3.235-22.367-.2-33.11 4.618-12.891 12.46-23.143 22.641-32.132 6.78-5.313 14.249-8.931 22.777-10.395 17.345-2.306 36.656-.945 52.586 6.547M449 144v7h1v-7zM217 377c-1.045.996-2.06 2.024-3.062 3.063a119 119 0 0 1-8 7.437c-3.736 3.211-6.825 6.686-9.938 10.5l1 2 1.875-2.5c5.532-6.648 13.07-11.592 20.125-16.5l-1-4z" fill="#ff7a5d"/><path d="m448.313 28.5 3.06.017c9.59.23 16.329 2.44 24.674 7.233 6.9 4.235 12.74 8.198 16.887 15.242C495.648 56.104 496.587 61.28 497 67l.234 2.945c.317 7.301-.674 13.192-3.562 19.918C488.807 98.99 481.577 106.291 473 112c-8.121 4.441-15.56 5.368-24.754 5.215-12.33-.461-24.521-3.067-35.219-9.38-6.863-5.096-11.388-13.757-15.265-21.218C395.018 79.778 395.37 72.22 396 65c.999-5.972 2.518-10.954 6.094-15.89 5.325-6.071 10.712-10.801 18.094-14.172l3.167-1.473c8.422-3.385 15.856-5.025 24.957-4.965M291 25.563l2.483.018c9.127.23 18.79 1.546 26.693 6.349L323 34l2.273 1.648c7.629 6.268 12.051 14.18 15.938 23.145 1.105 4.491 1.04 8.788.976 13.395l-.001 2.732c-.045 6.657-.045 6.657-1.186 10.08h-2l-.187 2.438c-1.309 5.735-3.766 10.301-7.723 14.671-8.194 7.673-17.841 13.225-28.66 16.235-7.806 1.493-15.888 1.576-23.618-.406-8.216-2.917-16.44-7.522-22.351-14.008-4.722-6.237-7.15-12.8-8.176-20.524-.83-9.924-1.576-19.643 2.453-28.988 5.064-9.703 11.596-18.027 20.758-24.094 6.5-3.437 12.15-4.856 19.504-4.762" fill="#fff"/><path d="m451.375 38.75 2.809.055q3.409.07 6.816.195v2l1.723.191c3.468.55 6.342 1.16 9.257 3.184 1.859 1.772 3.444 3.599 5.02 5.625l1.543 1.898c2.463 3.602 3.39 6.57 3.937 10.918.277 5.148.196 10.089-1.402 15.04-2.016 3.907-4.586 7.292-8.137 9.953-7.348 4.509-14.426 8.265-23.128 8.504-7.18-.068-12.053-2.699-18.125-6.25-2.938-2.255-4.737-3.9-6.688-7.063-2.727-7.127-4-14.4-3-22 1.75-6.323 6.283-10.929 10.586-15.703 6.259-5.955 10.417-6.858 18.789-6.547M306.792 38.842c4.307.308 8.248 1.486 12.208 3.158v2l1.75.687c2.931 1.71 4.308 3.521 6.25 6.313 3.382 6.119 5.376 11.176 5.273 18.242-.467 4.716-1.942 8.65-4.273 12.758-3.87 5.277-8.696 8.295-14.586 11-5.786 2.397-11.14 3.723-17.414 3-6.657-1.36-12.699-3.68-18-8-3.051-3.613-4.694-7.09-5.688-11.73-.87-6.329-1-13.124.81-19.301 2.65-5.94 7.069-10.57 12.19-14.469 6.608-4.673 13.629-3.908 21.48-3.658" fill="#ff5a35"/><path d="M703 82c4.331 8.098 4.546 17.297 4.309 26.313-1.027 20.2-8.11 40.912-19.048 57.88-3.556 5.094-7.82 9.488-12.261 13.807l-1.902 1.895c-6.137 5.703-13.338 8.883-21.45 10.75-7.864 1.62-15.47 1.6-23.46 1.355-11.403-.44-11.403-.44-22.448 1.996-3.609 2.082-5.56 5.56-7.74 9.004a821 821 0 0 1-3.625 5.188c-.55.797-1.098 1.595-1.664 2.417-5.619 7.864-12.175 13.94-20.961 18.145-5.405 2.305-10.98 3.777-16.684 5.16-3.11.911-3.11.911-5.351 2.961-1.598 1.983-2.715 3.795-3.715 6.129a872 872 0 0 1-3.562-6.375l-1.038-1.828c-.861-1.567-1.637-3.18-2.4-4.797l1-2c1.925-.35 3.867-.603 5.813-.812C557.5 227.678 566.416 223.45 575 217l1.793-1.293c9.2-7.18 14.848-17.585 20.207-27.707l3.022.032q5.637.053 11.272.078 2.424.015 4.847.04c12.756.135 24.843-.38 36.859-5.15l1.91-.695c9.58-4.053 17.727-13.258 24.09-21.305 11.064-15.284 16.728-31.79 21-50l.719-3.02C702.5 99.45 702.637 90.684 703 82" fill="#070302"/><path d="M478 240c2.625.375 2.625.375 5 1 .813 2 .813 2 1 5-.984 2.073-2.189 3.872-3.484 5.766-1.58 2.328-2.945 4.723-4.329 7.172-4.231 7.009-8.947 12.946-16 17.25A444 444 0 0 1 455 279l-2.52 1.488c-7.199 4.177-14.692 7.03-22.507 9.8a238 238 0 0 0-5.442 2.06c-15.386 5.877-30.642 8.31-47.078 8.064a518 518 0 0 0-7.639-.04c-8.112-.034-15.958-.128-23.814-2.372l-2.727-.769C325.547 291.976 309.878 284.998 295 274c-2.042-1.443-4.091-2.876-6.14-4.31A717 717 0 0 1 266 253a2596 2596 0 0 0-4-3l1-5c2.18-.723 2.18-.723 5-1 2.445 1.379 2.445 1.379 5.125 3.563q1.598 1.26 3.2 2.519l1.77 1.413c25.07 19.813 49.873 34.81 81.8 40.157 16.639 1.733 33.044.951 49.105-3.652l3.293-.828c5.158-1.309 9.81-3.068 14.707-5.172a745 745 0 0 1 5.492-1.939c10.924-3.853 22.77-8.64 30.945-17.123 4.285-5.363 7.455-11.523 10.68-17.56C476 242 476 242 478 240" fill="#ff5a35"/><path d="M503.188 383.375c3.998.888 6.695 3.043 9.812 5.625-19.696 13.13-47.059 17.005-70 20l-3.257.425c-50.35 6.33-104.428 8.787-154.13-2.644l-2.589-.586q-2.358-.544-4.7-1.152c-4.764-1.126-8.557-1.06-13.303.21-2.937 1.086-4.835 2.518-7.021 4.747-1.925 2.499-1.925 2.499-3.562 5.25l-1.692 2.703c-3.714 6.48-6.594 12.976-8.996 20.047l-.812 2.348q-.975 2.824-1.938 5.652h-2c-3.082-6.44-3.082-6.44-2.875-10.358.488-2.53 1.105-4.976 1.813-7.454l.723-2.674c3.203-11.274 8.763-19.65 16.339-28.514 5.944.94 11.666 2.166 17.438 3.875 7.48 2.053 15.011 3.22 22.687 4.313l3.537.505c15.166 2.076 30.117 2.51 45.4 2.495l3.128-.001c36.427-.044 73.053-1.855 108.81-9.187l4.793-.934c12.216-2.46 23.77-6.113 34.832-11.941 2.686-1.381 4.564-2.162 7.563-2.75M508 63c3.483 5.225 3.853 10.79 4.266 16.98.325 9.24-.484 17.437-4.266 26.02-1.744 3.241-3.72 6.115-6 9l-1.555 2.047c-5.682 7.014-12.956 12.674-21.257 16.266-5.188 1.903-10.553 2.856-15.989 3.78-3.619 1.026-5.52 2.29-8.199 4.907-1.54 2.402-1.998 3.97-2.227 6.84.01 1.07.02 2.137.032 3.238l.02 3.516.05 3.656.027 3.703q.036 4.524.098 9.047l2 1c-2.763-.523-5.326-1.109-8-2 .09-1.038.09-1.038.184-2.098.282-3.3.549-6.6.816-9.902l.324-3.68c.66-8.24.577-16.102-.324-24.32l3.227-.191c10.666-.822 18.612-2.987 27.773-8.809 9.597-6.644 17.836-14.93 22.875-25.562A199 199 0 0 0 504 91l.93-2.281c2.96-8.234 2.797-17.066 3.07-25.719M359 62h1c5.595 23.804 5.595 23.804 2.05 36.363-2.89 8.328-6.734 14.738-13.277 20.649-6.488 5.112-13.588 8.478-21.135 11.756-5.814 2.581-9.488 5.489-13.45 10.545L313 143q-1.255-3.185-2.5-6.375l-1.406-3.586C308 130 308 130 308 128l1.661-.623c15.39-5.798 15.39-5.798 29.339-14.377l2-1.453c7.572-5.94 11.444-14.001 15.02-22.75 2.04-5.818 2.265-11.499 2.543-17.61l.13-2.677q.158-3.255.307-6.51M211 107h1q1.016 4.465 2 8.938l.578 2.517c2.346 10.766 1.328 19.923-1.578 30.545-3.691 11.005-9.307 21.047-17.75 29.094-3.411 2.89-7.037 5.44-10.734 7.949-2.657 2.066-4.521 4.259-6.516 6.957l-8-8 1-3c2.371-1.727 2.371-1.727 5.438-3.625 9.83-6.398 17.392-13.37 23.562-23.375l1.621-2.516c8.174-13.616 9.023-28.308 9.35-43.81z" fill="#070302"/><path d="M458.523 46.7c7.655-.032 7.655-.032 11.414 1.487 2.449 2.152 4.322 4.04 6.063 6.813.5 2.938.5 2.938 0 6-1.8 3.529-3.401 5.572-6.625 7.875-4.56 1.52-8.616 1.835-13.375 1.125-3.562-1.812-3.562-1.812-6-4-1.351-4.053-1.551-7.762-1-12 2.363-3.83 4.855-6.744 9.523-7.3M314.3 46.781C317 47 317 47 320 48.25c3.718 3.253 3.718 3.253 5 5.75.4 3.105.617 5.03 0 8-1.681 3.042-3.859 5.29-6.832 7.14-4.222 1.674-8.716 1.414-13.168.86-3.125-1.875-3.125-1.875-5-4-1.54-3.081-1.38-6.044-1.36-9.45.36-2.55.36-2.55 1.407-4.507 4.4-5.319 7.707-5.33 14.254-5.262" fill="#fff"/><path d="m219 378 9 6-4 2c-13.208 8.796-21.804 19.4-29.937 32.813L192 422h-2c-.397-6.159.106-10.794 2.617-16.457 5.359-9.854 13.585-16.907 22.946-22.856L218 381zM150 192l3 9-3.75.375c-2.618.278-5.167.608-7.746 1.137-12.632 2.585-26.962 3.323-39.379-.512A117 117 0 0 1 97 200c3.22-1.079 6.214-1.03 9.583-.935 13.274.365 25.243-2.074 37.843-6.295C147 192 147 192 150 192M552 324c3.782.657 7.218 1.72 10.813 3.063l2.957 1.097 2.23.84-1.773 1.32c-6.227 4.481-6.227 4.481-10.664 10.555L555 343l2 1-12-2c1.29-4.3 2.997-8.124 5.098-12.07.917-1.961 1.447-3.818 1.902-5.93M533 358c3.99-.174 6.86 1.349 10.375 3.063 1.212.638 2.422 1.28 3.625 1.937l-1 2c-1.734.72-3.469 1.438-5.21 2.137-2.436 1.175-4.039 2.832-5.79 4.863l-10-4c1.38-3.588 3.618-6.232 6.367-8.855zM557 276c4.32 6.48 5.38 15.316 6 23 .067 3.335.062 6.665 0 10l2 1h-8l.5-3.437c.524-4.714.613-9.389.625-14.125l.014-2.145c-.014-4.842-.46-9.498-1.139-14.293M192 355l3 1c-6.615 6.801-13.687 12.966-21 19 0-2.437 0-2.437 1-6 4.028-5.857 8.801-9.952 15.02-13.32z" fill="#070302"/><path d="m600 34 2 4 1.03 1.87c1.023 2.247 1.358 4.01 1.603 6.458l.254 2.422.238 2.5.262 2.547q.315 3.1.613 6.203h-2l-.621-2.957-.817-3.855-.808-3.833c-.688-3.325-.688-3.325-1.754-6.355a81 81 0 0 1-.062-4.687l.027-2.45z" fill="#26110b"/><path d="m186 234 19 2-1 4-2 2v-3l-16-4z" fill="#974734"/><path d="m276 129 17 2-1 4-16-5z" fill="#070302"/><path d="M456 47c2.188.375 2.188.375 4 1l-2.25 1.25c-2.805 1.785-4.742 3.096-6.75 5.75-.622 2.702-.814 5.216-1 8h-1c-.238-3.036-.33-5.969 0-9 2.058-3.336 3.74-4.826 7-7" fill="#ffdcd5"/><path d="m319 124 2 1-2.117.988-2.758 1.325-2.742 1.3c-2.647 1.307-2.647 1.307-4.383 4.387l-1-5q2.682-1.044 5.375-2.062l3.023-1.16zM600 34c1.206 2.332 2.165 4.496 3 7-.437 2.688-.437 2.688-1 5-2-3-2-3-2.195-5.262l.07-2.425.055-2.45z" fill="#471e16"/><path d="m323 48 3 1 1 3h-2l-1 2-3-5z" fill="#ff6c4c"/><path d="M197 237h7l-1 5-1-3-5-1z" fill="#26110b"/><path d="m476 50 3 3-1 2h-3z" fill="#ff6c4c"/></svg>
